<?xml version="1.0" standalone="no"?>
<!DOCTYPE svg PUBLIC "-//W3C//DTD SVG 20010904//EN"
 "http://www.w3.org/TR/2001/REC-SVG-20010904/DTD/svg10.dtd">
<svg version="1.0" xmlns="http://www.w3.org/2000/svg"
 width="70.000000pt" height="70.000000pt" viewBox="0 0 70.000000 70.000000"
 preserveAspectRatio="xMidYMid meet">

<g transform="translate(0.000000,70.000000) scale(0.100000,-0.100000)"
fill="#000000" stroke="none">
<path d="M25 675 c-28 -27 -32 -57 -10 -75 12 -10 16 -7 25 16 18 45 46 56 74
28 9 -8 16 -20 16 -25 0 -6 -29 -39 -65 -73 -92 -89 -87 -106 30 -106 43 0 66
5 75 15 19 23 2 35 -52 35 l-50 0 51 48 c41 39 51 54 51 80 0 46 -38 82 -85
82 -25 0 -44 -8 -60 -25z"/>
<path d="M221 614 c-83 -100 -83 -114 5 -114 46 0 54 -3 54 -19 0 -26 23 -44
38 -29 7 7 12 19 12 27 0 8 8 23 17 34 17 18 17 20 1 31 -13 9 -18 31 -20 82
-4 96 -18 95 -107 -12z m59 -34 c0 -26 -4 -30 -26 -30 l-25 0 21 30 c12 17 23
30 26 30 2 0 4 -13 4 -30z"/>
<path d="M380 690 c-19 -12 -4 -40 22 -40 13 0 46 -11 74 -24 133 -62 205
-209 170 -346 -38 -147 -152 -236 -301 -234 -87 1 -148 27 -208 86 -51 52 -75
99 -90 179 -8 45 -14 59 -26 57 -28 -6 -18 -99 18 -173 37 -74 92 -127 170
-164 48 -22 69 -26 146 -26 83 0 95 3 153 34 75 41 125 94 161 170 22 47 26
70 26 141 0 76 -4 93 -33 152 -47 96 -132 164 -230 186 -22 5 -46 6 -52 2z"/>
<path d="M317 392 c-92 -92 -167 -173 -167 -180 0 -35 50 3 198 151 147 147
185 197 149 197 -7 0 -88 -75 -180 -168z"/>
<path d="M404 365 c-10 -24 6 -35 52 -35 24 0 44 -2 44 -5 0 -2 -25 -43 -56
-91 -50 -77 -61 -114 -36 -114 13 0 32 25 101 134 34 54 60 104 57 112 -8 20
-154 20 -162 -1z"/>
</g>
</svg>
