<?xml version="1.0" standalone="no"?>
<!DOCTYPE svg PUBLIC "-//W3C//DTD SVG 20010904//EN"
 "http://www.w3.org/TR/2001/REC-SVG-20010904/DTD/svg10.dtd">
<svg version="1.0" xmlns="http://www.w3.org/2000/svg"
 width="70.000000pt" height="70.000000pt" viewBox="0 0 70.000000 70.000000"
 preserveAspectRatio="xMidYMid meet">

<g transform="translate(0.000000,70.000000) scale(0.100000,-0.100000)"
fill="#000000" stroke="none">
<path d="M65 580 c-16 -25 13 -30 185 -30 l179 0 3 -87 3 -88 95 -3 c116 -3
130 -14 130 -98 0 -48 -2 -54 -21 -54 -11 0 -32 14 -46 30 -20 24 -33 30 -64
30 -38 0 -79 -26 -79 -50 0 -6 -28 -10 -64 -10 -58 0 -67 3 -94 30 -42 42 -93
42 -132 0 -17 -18 -38 -30 -53 -30 -13 0 -29 -6 -36 -13 -16 -20 6 -37 46 -37
18 0 33 -4 33 -10 0 -23 41 -50 76 -50 26 0 43 8 66 30 26 27 36 30 89 30 55
0 63 -3 86 -30 34 -41 83 -41 124 -1 20 20 41 31 67 33 l37 3 3 84 c3 75 0 86
-21 115 -13 17 -41 64 -61 104 l-36 72 -55 0 c-48 0 -55 2 -55 20 0 19 -7 20
-199 20 -123 0 -202 -4 -206 -10z m513 -118 l23 -42 -65 0 -66 0 0 38 c0 21 2
41 4 43 2 2 22 4 43 3 34 -1 41 -5 61 -42z m-320 -234 c26 -26 8 -78 -27 -78
-18 0 -51 29 -51 46 0 34 54 56 78 32z m300 0 c15 -15 15 -51 0 -66 -19 -19
-46 -14 -64 13 -16 24 -16 27 1 45 20 23 45 26 63 8z"/>
<path d="M40 480 c0 -20 5 -21 113 -18 92 2 112 6 112 18 0 12 -20 16 -112 18
-108 3 -113 2 -113 -18z"/>
<path d="M2 393 c3 -16 16 -18 113 -18 97 0 110 2 113 18 3 15 -7 17 -113 17
-106 0 -116 -2 -113 -17z"/>
<path d="M47 324 c-4 -4 -7 -13 -7 -21 0 -10 18 -13 71 -13 62 0 70 2 67 18
-3 13 -15 18 -64 20 -33 2 -63 0 -67 -4z"/>
</g>
</svg>
