<?xml version="1.0" standalone="no"?>
<!DOCTYPE svg PUBLIC "-//W3C//DTD SVG 20010904//EN"
 "http://www.w3.org/TR/2001/REC-SVG-20010904/DTD/svg10.dtd">
<svg version="1.0" xmlns="http://www.w3.org/2000/svg"
 width="70.000000pt" height="70.000000pt" viewBox="0 0 70.000000 70.000000"
 preserveAspectRatio="xMidYMid meet">

<g transform="translate(0.000000,70.000000) scale(0.100000,-0.100000)"
fill="#000000" stroke="none">
<path d="M300 689 c-13 -5 -32 -17 -40 -24 -9 -8 -40 -18 -70 -21 -89 -10
-124 -45 -134 -133 -3 -30 -15 -64 -28 -82 -31 -42 -31 -116 0 -158 13 -18 25
-52 28 -82 10 -88 45 -123 133 -133 30 -3 64 -15 82 -28 42 -31 116 -31 158 0
18 13 52 25 82 28 88 10 123 45 133 133 3 30 15 64 28 82 17 22 23 45 23 79 0
34 -6 57 -23 79 -13 18 -25 52 -28 82 -10 88 -45 123 -133 133 -29 3 -64 15
-80 27 -33 24 -96 33 -131 18z m111 -71 c14 -11 51 -23 83 -27 31 -4 64 -15
73 -24 9 -9 20 -42 24 -73 4 -33 17 -70 30 -88 28 -38 28 -74 0 -112 -13 -18
-26 -55 -30 -88 -4 -31 -15 -64 -24 -73 -9 -9 -42 -20 -73 -24 -33 -4 -70 -17
-88 -30 -38 -28 -74 -28 -112 0 -18 13 -55 26 -88 30 -31 4 -64 15 -73 24 -9
9 -20 42 -24 73 -4 33 -17 70 -30 88 -28 38 -28 74 0 112 13 18 26 55 30 89 9
68 34 95 87 95 33 0 69 13 124 45 28 16 52 12 91 -17z"/>
<path d="M275 555 c-77 -27 -145 -124 -145 -205 0 -112 108 -220 220 -220 112
0 220 108 220 220 0 55 -23 106 -69 151 -66 66 -141 84 -226 54z m172 -73 c66
-47 83 -162 35 -229 -47 -66 -162 -83 -229 -35 -92 65 -80 225 19 276 46 23
134 17 175 -12z"/>
<path d="M363 378 c-40 -40 -43 -41 -61 -25 -18 16 -20 16 -37 -3 -19 -20 -18
-21 18 -58 l37 -37 65 65 c61 60 64 65 48 82 -9 10 -19 18 -22 18 -4 0 -25
-19 -48 -42z"/>
</g>
</svg>
