<?xml version="1.0" standalone="no"?>
<!DOCTYPE svg PUBLIC "-//W3C//DTD SVG 20010904//EN"
 "http://www.w3.org/TR/2001/REC-SVG-20010904/DTD/svg10.dtd">
<svg version="1.0" xmlns="http://www.w3.org/2000/svg"
 width="40.000000pt" height="40.000000pt" viewBox="0 0 40.000000 40.000000"
 preserveAspectRatio="xMidYMid meet">

<g transform="translate(0.000000,40.000000) scale(0.100000,-0.100000)"
fill="#000000" stroke="none">
<path d="M97 319 c-53 -44 -97 -84 -97 -89 0 -6 9 -15 20 -22 18 -11 20 -24
20 -110 l0 -98 160 0 160 0 0 96 c0 87 2 97 23 114 l22 18 -22 24 c-16 17 -23
37 -23 66 0 40 -1 42 -30 42 -24 0 -30 -4 -30 -21 0 -18 -6 -15 -48 20 -27 23
-50 41 -53 41 -2 0 -48 -37 -102 -81z m197 -10 c47 -40 86 -76 86 -81 0 -17
-27 -1 -105 63 l-75 62 -75 -62 c-78 -64 -105 -80 -105 -63 0 10 167 152 180
152 4 0 47 -32 94 -71z m56 4 c0 -35 0 -36 -20 -18 -11 10 -20 26 -20 37 0 11
7 18 20 18 16 0 20 -7 20 -37z m-65 -45 l64 -53 0 -102 1 -103 -150 0 -150 0
1 103 0 102 71 58 c40 33 77 56 85 53 8 -3 43 -29 78 -58z"/>
<path d="M141 244 c-12 -15 -21 -35 -21 -46 0 -10 -12 -30 -27 -42 -24 -21
-26 -27 -16 -47 7 -13 13 -35 15 -49 3 -25 3 -25 108 -25 105 0 105 0 108 25
2 14 8 36 15 49 10 20 8 26 -16 47 -15 12 -27 32 -27 42 0 11 -9 31 -21 46
-16 20 -29 26 -59 26 -30 0 -43 -6 -59 -26z m108 -10 c42 -54 18 -104 -49
-104 -67 0 -91 50 -49 104 28 35 70 35 98 0z m-111 -136 c2 -38 0 -48 -12 -48
-10 0 -16 9 -16 24 0 14 -4 28 -10 31 -5 3 -10 15 -10 26 0 15 6 20 23 17 19
-3 22 -10 25 -50z m172 33 c0 -11 -4 -23 -10 -26 -5 -3 -10 -17 -10 -31 0 -15
-6 -24 -15 -24 -11 0 -15 11 -15 43 0 48 5 57 32 57 11 0 18 -7 18 -19z m-60
-31 c0 -5 -22 -10 -50 -10 -27 0 -50 5 -50 10 0 6 23 10 50 10 28 0 50 -4 50
-10z m0 -35 c0 -11 -12 -15 -50 -15 -38 0 -50 4 -50 15 0 11 12 15 50 15 38 0
50 -4 50 -15z"/>
</g>
</svg>
